<?xml version="1.0" encoding="UTF-8"?>
<svg version="1.1" xmlns="http://www.w3.org/2000/svg" width="537" height="571">
<path d="M0 0 C177.21 0 354.42 0 537 0 C537 188.43 537 376.86 537 571 C359.79 571 182.58 571 0 571 C0 382.57 0 194.14 0 0 Z " fill="#FEFEFE" transform="translate(0,0)"/>
<path d="M0 0 C0.33 0 0.66 0 1 0 C1 38.94 1 77.88 1 118 C0.67 118 0.34 118 0 118 C-0.06993164 117.4423999 -0.13986328 116.8847998 -0.21191406 116.31030273 C-4.27050627 84.54953497 -14.13630076 55.26887764 -38.8359375 33.421875 C-44.78651095 28.86711508 -51.35329781 25.42279258 -58 22 C-58.93996826 21.48953125 -58.93996826 21.48953125 -59.89892578 20.96875 C-78.1861111 11.28702724 -101.13032475 8.84195207 -121.1875 13.5625 C-138.43546745 19.09341247 -151.81937036 29.67855867 -160.4296875 45.65234375 C-165.50000185 56.10799198 -167.58969887 66.67416135 -167.5625 78.25 C-167.55887451 79.87808594 -167.55887451 79.87808594 -167.55517578 81.5390625 C-167.25914641 94.5720941 -163.24246919 105.78398185 -155 116 C-154.38898438 116.78375 -153.77796875 117.5675 -153.1484375 118.375 C-145.1767779 127.92904896 -134.82593027 135.01651669 -124 141 C-124 141.66 -124 142.32 -124 143 C-122.98292969 143.34804688 -122.98292969 143.34804688 -121.9453125 143.703125 C-118.26733041 145.32260783 -115.16953278 147.46822944 -111.875 149.75 C-105.77714059 153.9034292 -99.57573222 157.6369436 -93 161 C-93 161.66 -93 162.32 -93 163 C-91.02 163.66 -89.04 164.32 -87 165 C-87 165.66 -87 166.32 -87 167 C-86.195625 167.20625 -85.39125 167.4125 -84.5625 167.625 C-78.86472541 169.82414107 -74.14461813 173.46556611 -69.19921875 177.00390625 C-65.6648351 179.20911998 -62.21631566 180.66063689 -58.3125 182.0625 C-57.60625488 182.31926514 -56.90000977 182.57603027 -56.17236328 182.84057617 C-46.75684659 186.21520195 -38.21764171 188.312482 -28.1640625 188.7890625 C-25 189 -25 189 -22.88389587 189.50708008 C-18.81107544 190.20321282 -14.81780287 190.12205769 -10.69360352 190.09765625 C-9.76260834 190.09619598 -8.83161316 190.09473572 -7.87240601 190.0932312 C-5.85139498 190.08942928 -3.83038728 190.083317 -1.80938911 190.07516479 C1.41053303 190.06234295 4.63041363 190.05586854 7.85035706 190.05102539 C15.86298751 190.03768262 23.87557943 190.01371739 31.88818359 189.98962402 C38.63924516 189.96967891 45.39029082 189.95411645 52.14137459 189.94406128 C55.27481578 189.93769559 58.4081904 189.92517978 61.54161072 189.91235352 C74.72223642 189.87934254 87.83904396 190.28423233 101 191 C101.59453646 192.98759238 102.18907293 194.97518476 102.78360939 196.96277714 C103.22456372 198.43517557 103.66725299 199.90705463 104.11083984 201.37866211 C104.30887207 202.04647705 104.5069043 202.71429199 104.7109375 203.40234375 C104.90993652 204.06741943 105.10893555 204.73249512 105.31396484 205.41772461 C106.12216378 208.45983142 106.79205941 211.52250008 107.46591187 214.5967865 C108.31700791 218.42642693 109.24288911 222.23750733 110.1640625 226.05078125 C110.56793917 227.7349707 110.97157822 229.41921715 111.375 231.10351562 C112.00266202 233.72198144 112.63167241 236.34008865 113.26464844 238.95727539 C113.88109344 241.50830339 114.49182364 244.06064328 115.1015625 246.61328125 C115.2921524 247.39560623 115.48274231 248.17793121 115.67910767 248.98396301 C116.50214477 252.44908231 117 255.41653766 117 259 C116.34 259 115.68 259 115 259 C114.46632813 258.00742187 113.93265625 257.01484375 113.3828125 255.9921875 C101.94971102 235.01156201 88.78733675 218.31278065 68 206 C67.13890625 205.48824219 66.2778125 204.97648438 65.390625 204.44921875 C53.96301149 198.25606579 40.72057484 194.8630731 27.77954102 194.88647461 C27.09576889 194.88632858 26.41199677 194.88618256 25.70750427 194.8860321 C23.47293803 194.88672245 21.23845772 194.89447323 19.00390625 194.90234375 C17.44449407 194.90421105 15.88508131 194.90563348 14.32566833 194.90663147 C10.24043124 194.91043204 6.15523025 194.92024109 2.07000732 194.93133545 C-2.10631828 194.94160269 -6.28264976 194.94614043 -10.45898438 194.95117188 C-18.6393394 194.96186577 -26.8196652 194.97891235 -35 195 C-32.76298578 196.92857085 -30.52450649 198.85539485 -28.28515625 200.78125 C-27.65565063 201.32426758 -27.02614502 201.86728516 -26.37756348 202.42675781 C-22.0502801 206.1451417 -17.62978943 209.66382821 -13 213 C4.71154737 225.95966881 16.638062 247.57774617 20.67480469 268.83203125 C22.40644859 280.37632395 21.14913991 291.8186409 18 303 C17.50693359 304.83498047 17.50693359 304.83498047 17.00390625 306.70703125 C10.82161098 327.47868769 -4.10771569 344.98665557 -23.140625 355.296875 C-34.58461162 361.24873225 -34.58461162 361.24873225 -40 362 C-40 362.66 -40 363.32 -40 364 C-15.95940051 367.66997006 -15.95940051 367.66997006 7.11328125 361.8984375 C9 361 9 361 13 361 C13 360.34 13 359.68 13 359 C14.77190496 357.89068556 16.59561396 356.86377778 18.4375 355.875 C38.29389444 344.52515952 47.40741329 325.26121777 56 305 C56.33 305 56.66 305 57 305 C57 343.61 57 382.22 57 422 C55.45150353 418.90300706 54.37167392 416.19170404 53.3125 412.9375 C46.44302739 393.81023239 31.64299427 382.28749158 13.83691406 373.79394531 C9.38795743 371.87103104 4.7545223 370.83740495 0 370 C-1.23858765 369.74766602 -1.23858765 369.74766602 -2.50219727 369.49023438 C-7.22013242 368.8289924 -11.88950932 368.76514772 -16.6484375 368.68359375 C-18.16723007 368.6524221 -18.16723007 368.6524221 -19.71670532 368.62062073 C-22.93607098 368.55548402 -26.15551494 368.49640768 -29.375 368.4375 C-31.56381003 368.39428063 -33.75261227 368.35066527 -35.94140625 368.30664062 C-41.2941892 368.19983961 -46.64704922 368.098008 -52 368 C-51.89223101 384.63906153 -51.77938079 401.27807992 -51.66066074 417.91706657 C-51.60563892 425.64472963 -51.55221199 433.37239727 -51.50268555 441.10009766 C-51.45945916 447.84413148 -51.41309178 454.58813558 -51.36312145 461.33212292 C-51.33682564 464.89520149 -51.31198778 468.45827534 -51.29092598 472.02138901 C-53.20391867 504.91003144 -53.20391867 504.91003144 -42.48828125 534.63671875 C-36.75812614 539.88560099 -29.86527133 541.11488024 -22.36157227 541.17700195 C-21.7022168 541.18357315 -21.04286133 541.19014435 -20.36352539 541.19691467 C-18.18115089 541.21661179 -15.99884589 541.22831618 -13.81640625 541.23828125 C-13.06297377 541.24235678 -12.30954128 541.2464323 -11.53327751 541.25063133 C-7.52796583 541.2714992 -3.52268825 541.28578522 0.48266602 541.29516602 C3.75564674 541.30394314 7.02819136 541.32461578 10.30102539 541.35668945 C43.05422015 541.6708203 70.59410835 539.79784539 95.6796875 516.28515625 C107.6270782 504.51878662 116.79509918 490.79901682 125.5402832 476.56396484 C128.82274492 471.22718709 132.31852397 466.07117227 136 461 C137.14343574 464.43030723 136.81856412 465.55092537 135.92578125 468.98046875 C135.66990234 469.98142578 135.41402344 470.98238281 135.15039062 472.01367188 C134.73563477 473.5847168 134.73563477 473.5847168 134.3125 475.1875 C133.78760573 477.22261636 133.26286928 479.25777343 132.73828125 481.29296875 C132.45847412 482.3703833 132.17866699 483.44779785 131.89038086 484.55786133 C128.23333877 498.69568321 124.92290283 512.89858161 121.70092773 527.14086914 C121.11238651 529.73917839 120.519409 532.33644266 119.92578125 534.93359375 C119.74662674 535.73131699 119.56747223 536.52904022 119.38288879 537.35093689 C118.11341252 542.88658748 118.11341252 542.88658748 117 544 C113.86498304 544.09806502 110.75197883 544.12990394 107.61656189 544.12025452 C106.61932069 544.12110894 105.62207949 544.12196337 104.59461886 544.12284368 C101.22574046 544.1245015 97.85691098 544.1189722 94.48803711 544.11352539 C92.0839793 544.11324356 89.67992141 544.11340118 87.27586365 544.1139679 C82.08605914 544.11419621 76.89626585 544.11134488 71.70646477 544.10573006 C64.20280211 544.09761714 56.69914555 544.09500005 49.19547898 544.09374207 C37.02248711 544.09155122 24.84950192 544.08489024 12.67651367 544.07543945 C0.84871453 544.06626618 -10.97908279 544.05918494 -22.80688477 544.05493164 C-23.53544896 544.05466892 -24.26401316 544.05440619 -25.01465506 544.05413551 C-28.6694978 544.05283051 -32.32434055 544.05156679 -35.97918332 544.05032361 C-66.31946033 544.03994997 -96.65972924 544.02225664 -127 544 C-126 542 -126 542 -124.28515625 541.32421875 C-123.55167969 541.11410156 -122.81820312 540.90398438 -122.0625 540.6875 C-113.66290268 537.99909385 -105.58422716 534.92648356 -101 527 C-97.46290181 517.59240102 -96.41361719 508.7227424 -96.45410156 498.74267578 C-96.44533784 497.3810103 -96.43484249 496.01935506 -96.42277527 494.65771484 C-96.39523614 491.00981576 -96.39150336 487.36225796 -96.39249516 483.71427011 C-96.38933802 479.88389093 -96.36366244 476.0536593 -96.34051514 472.22335815 C-96.30016388 464.99188568 -96.27966393 457.7605029 -96.26654124 450.52893531 C-96.2505999 442.28684967 -96.21215482 434.04491513 -96.17194796 425.80291772 C-96.08983518 408.86865709 -96.03556494 391.93442112 -96 375 C-96.6798999 374.91959473 -97.3597998 374.83918945 -98.06030273 374.75634766 C-101.18661402 374.38392108 -104.31204063 374.00450703 -107.4375 373.625 C-108.50677734 373.49867188 -109.57605469 373.37234375 -110.67773438 373.2421875 C-116.25068045 372.56048156 -121.7033758 371.74565938 -127.16505432 370.43530273 C-129.73622091 369.82534689 -132.32789395 369.40992409 -134.9375 369 C-138.45872277 368.44532075 -141.95016176 367.81372572 -145.44140625 367.09765625 C-152.93056726 365.58226858 -160.47270721 364.36140318 -168.00830078 363.10180664 C-169.94350356 362.7776945 -171.87801456 362.44946025 -173.8125 362.12109375 C-174.95332031 361.9295874 -176.09414062 361.73808105 -177.26953125 361.54077148 C-180 361 -180 361 -182 360 C-193.0227684 358.82379829 -193.0227684 358.82379829 -203.25 361.9375 C-209.11955151 367.47923082 -211.80141483 375.43901198 -214 383 C-214.33 383 -214.66 383 -215 383 C-215 356.93 -215 330.86 -215 304 C-206.47718228 304 -203.96623265 304.54370177 -198 310 C-194.77279835 313.8424394 -191.90741019 317.91336051 -189 322 C-176.06926984 338.95362399 -161.14405584 353.14110826 -141 361 C-139.906875 361.49242187 -138.81375 361.98484375 -137.6875 362.4921875 C-133.82117714 364.07312036 -130.0506511 365.1550165 -126 366.125 C-125.32710938 366.29386719 -124.65421875 366.46273438 -123.9609375 366.63671875 C-104.23018988 371.47418004 -80.11903989 370.67948302 -61.91796875 360.87890625 C-60 360 -60 360 -56 360 C-56 359.34 -56 358.68 -56 358 C-54.39117673 356.9414845 -52.73514105 355.95448378 -51.0625 355 C-37.5137563 346.58863341 -27.73819702 331.29263184 -23.8828125 315.87109375 C-21.30298561 303.51284929 -21.04163734 288.31310034 -27 277 C-27.37382812 276.15824219 -27.74765625 275.31648438 -28.1328125 274.44921875 C-38.06404087 252.77809459 -63.13209079 234.4339546 -84 224 C-84 223.34 -84 222.68 -84 222 C-84.68835938 221.76023438 -85.37671875 221.52046875 -86.0859375 221.2734375 C-89.54734251 219.76081279 -92.52960615 217.75972575 -95.625 215.625 C-100.58303734 212.2569285 -105.58221302 208.98431488 -110.67333984 205.82080078 C-122.75203653 198.31502515 -134.40847459 190.2339235 -146 182 C-147.03382813 181.27619141 -148.06765625 180.55238281 -149.1328125 179.80664062 C-150.14085937 179.09185547 -151.14890625 178.37707031 -152.1875 177.640625 C-153.10917969 176.99125977 -154.03085938 176.34189453 -154.98046875 175.67285156 C-155.64691406 175.12081055 -156.31335938 174.56876953 -157 174 C-157 173.34 -157 172.68 -157 172 C-157.72574219 171.75636719 -158.45148438 171.51273438 -159.19921875 171.26171875 C-162.34439883 169.84485241 -164.30204281 168.16884189 -166.8125 165.8125 C-167.68132812 165.00683594 -168.55015625 164.20117188 -169.4453125 163.37109375 C-170.28835937 162.58863281 -171.13140625 161.80617187 -172 161 C-173.9625231 159.28718862 -175.93646011 157.58920559 -177.91796875 155.8984375 C-183.67424917 150.64974653 -188.64245791 145.15693238 -193.25 138.875 C-193.765625 138.18535156 -194.28125 137.49570313 -194.8125 136.78515625 C-207.25408752 120.01466586 -209.30634353 99.97601703 -206.68212891 79.52246094 C-205.12281312 70.32629128 -201.59354381 62.08463711 -197 54 C-196.34 54 -195.68 54 -195 54 C-194.77054688 53.12859375 -194.54109375 52.2571875 -194.3046875 51.359375 C-188.35332263 36.03550138 -169.34358286 24.50850436 -155 18 C-150.40224163 16.0182076 -145.80152328 14.41576919 -141 13 C-140.36304199 12.80390137 -139.72608398 12.60780273 -139.06982422 12.40576172 C-112.09277936 4.39582585 -78.23698471 7.26975345 -52 16.375 C-44.44825217 18.93306954 -36.70053626 20.94154507 -29 23 C-27.97374512 23.27481201 -27.97374512 23.27481201 -26.92675781 23.55517578 C-24.28894301 24.16415938 -21.76705881 24.20907351 -19.0625 24.25 C-17.53302734 24.28867187 -17.53302734 24.28867187 -15.97265625 24.328125 C-12.59882446 23.95571781 -10.80025745 22.85060492 -8 21 C-7.34 21 -6.68 21 -6 21 C-4.10219271 16.66581848 -2.98054111 12.26935373 -1.875 7.6875 C-1.69324219 6.94693359 -1.51148438 6.20636719 -1.32421875 5.44335938 C-0.8795787 3.629696 -0.43934255 1.81495392 0 0 Z " fill="#040404" transform="translate(300,8)"/>
<path d="M0 0 C1.14343574 3.43030723 0.81856412 4.55092537 -0.07421875 7.98046875 C-0.33009766 8.98142578 -0.58597656 9.98238281 -0.84960938 11.01367188 C-1.26436523 12.5847168 -1.26436523 12.5847168 -1.6875 14.1875 C-2.21239427 16.22261636 -2.73713072 18.25777343 -3.26171875 20.29296875 C-3.54152588 21.3703833 -3.82133301 22.44779785 -4.10961914 23.55786133 C-7.76666123 37.69568321 -11.07709717 51.89858161 -14.29907227 66.14086914 C-14.88761349 68.73917839 -15.480591 71.33644266 -16.07421875 73.93359375 C-16.34295052 75.1301786 -16.34295052 75.1301786 -16.61711121 76.35093689 C-17.88658748 81.88658748 -17.88658748 81.88658748 -19 83 C-22.13501696 83.09806502 -25.24802117 83.12990394 -28.38343811 83.12025452 C-29.38067931 83.12110894 -30.37792051 83.12196337 -31.40538114 83.12284368 C-34.77425954 83.1245015 -38.14308902 83.1189722 -41.51196289 83.11352539 C-43.9160207 83.11324356 -46.32007859 83.11340118 -48.72413635 83.1139679 C-53.91394086 83.11419621 -59.10373415 83.11134488 -64.29353523 83.10573006 C-71.79719789 83.09761714 -79.30085445 83.09500005 -86.80452102 83.09374207 C-98.97751289 83.09155122 -111.15049808 83.08489024 -123.32348633 83.07543945 C-135.15128547 83.06626618 -146.97908279 83.05918494 -158.80688477 83.05493164 C-159.53544896 83.05466892 -160.26401316 83.05440619 -161.01465506 83.05413551 C-164.6694978 83.05283051 -168.32434055 83.05156679 -171.97918332 83.05032361 C-202.31946033 83.03994997 -232.65972924 83.02225664 -263 83 C-262.505 82.01 -262.505 82.01 -262 81 C-260.7359584 81.00222061 -259.47191681 81.00444122 -258.16957092 81.00672913 C-189.21532723 81.23542276 -189.21532723 81.23542276 -120.26364136 80.79147339 C-118.04636431 80.76433626 -115.82900119 80.74335827 -113.61160278 80.72927856 C-82.09771435 80.50752954 -58.43589221 73.39952941 -35.8046875 50.80859375 C-25.86170314 40.27758343 -18.016113 27.86395675 -10.4597168 15.56396484 C-7.17725508 10.22718709 -3.68147603 5.07117227 0 0 Z " fill="#171717" transform="translate(436,469)"/>
<path d="M0 0 C0.33 0 0.66 0 1 0 C1 38.94 1 77.88 1 118 C0.67 118 0.34 118 0 118 C-0.06993164 117.4423999 -0.13986328 116.8847998 -0.21191406 116.31030273 C-4.27050627 84.54953497 -14.13630076 55.26887764 -38.8359375 33.421875 C-44.78721103 28.86657921 -51.35415297 25.42577193 -58 22 C-58.62229492 21.6589624 -59.24458984 21.3179248 -59.88574219 20.96655273 C-74.15040362 13.36151041 -91.02849105 11.01019024 -107 11 C-108.77864622 10.98572568 -110.55729204 10.97140092 -112.3359375 10.95703125 C-116.89135347 10.93291532 -121.44477457 10.95454875 -126 11 C-122.4033589 8.75927754 -119.38577385 8.7289185 -115.19921875 8.69921875 C-114.53425385 8.69371002 -113.86928894 8.68820129 -113.18417358 8.68252563 C-111.01840187 8.67080755 -108.85327276 8.67716567 -106.6875 8.6875 C-105.94990448 8.68865814 -105.21230896 8.68981628 -104.45236206 8.69100952 C-86.34145682 8.74727517 -69.18163216 10.41231036 -52 16.375 C-44.44825217 18.93306954 -36.70053626 20.94154507 -29 23 C-27.97374512 23.27481201 -27.97374512 23.27481201 -26.92675781 23.55517578 C-24.28894301 24.16415938 -21.76705881 24.20907351 -19.0625 24.25 C-17.53302734 24.28867187 -17.53302734 24.28867187 -15.97265625 24.328125 C-12.59882446 23.95571781 -10.80025745 22.85060492 -8 21 C-7.34 21 -6.68 21 -6 21 C-4.10219271 16.66581848 -2.98054111 12.26935373 -1.875 7.6875 C-1.69324219 6.94693359 -1.51148438 6.20636719 -1.32421875 5.44335938 C-0.8795787 3.629696 -0.43934255 1.81495392 0 0 Z " fill="#060606" transform="translate(300,8)"/>
<path d="M0 0 C1.216875 -0.020625 2.43375 -0.04125 3.6875 -0.0625 C4.71423828 -0.07990234 4.71423828 -0.07990234 5.76171875 -0.09765625 C8 0 8 0 10.0582428 0.5 C14.1534323 1.19604478 18.16011352 1.12218835 22.30639648 1.09765625 C23.23739166 1.09619598 24.16838684 1.09473572 25.12759399 1.0932312 C27.14860502 1.08942928 29.16961272 1.083317 31.19061089 1.07516479 C34.41053303 1.06234295 37.63041363 1.05586854 40.85035706 1.05102539 C48.86298751 1.03768262 56.87557943 1.01371739 64.88818359 0.98962402 C71.63924516 0.96967891 78.39029082 0.95411645 85.14137459 0.94406128 C88.27481578 0.93769559 91.4081904 0.92517978 94.54161072 0.91235352 C107.72223642 0.87934254 120.83904396 1.28423233 134 2 C134.59453646 3.98759238 135.18907293 5.97518476 135.78360939 7.96277714 C136.22456372 9.43517557 136.66725299 10.90705463 137.11083984 12.37866211 C137.30887207 13.04647705 137.5069043 13.71429199 137.7109375 14.40234375 C138.00943604 15.39995728 138.00943604 15.39995728 138.31396484 16.41772461 C139.12216378 19.45983142 139.79205941 22.52250008 140.46591187 25.5967865 C141.31700791 29.42642693 142.24288911 33.23750733 143.1640625 37.05078125 C143.56793917 38.7349707 143.97157822 40.41921715 144.375 42.10351562 C145.00266202 44.72198144 145.63167241 47.34008865 146.26464844 49.95727539 C146.88109344 52.50830339 147.49182364 55.06064328 148.1015625 57.61328125 C148.2921524 58.39560623 148.48274231 59.17793121 148.67910767 59.98396301 C149.50214477 63.44908231 150 66.41653766 150 70 C149.34 70 148.68 70 148 70 C147.46632813 69.00742187 146.93265625 68.01484375 146.3828125 66.9921875 C134.94971102 46.01156201 121.78733675 29.31278065 101 17 C100.13890625 16.48824219 99.2778125 15.97648438 98.390625 15.44921875 C86.89055876 9.2168003 73.61524909 5.86359359 60.59594727 5.88647461 C59.892668 5.88632858 59.18938873 5.88618256 58.46479797 5.8860321 C56.16530149 5.88672274 53.86588839 5.8944749 51.56640625 5.90234375 C49.96215357 5.90421095 48.35790031 5.90563343 46.75364685 5.90663147 C42.55004273 5.91043285 38.34647366 5.9202426 34.1428833 5.93133545 C29.8459114 5.94160094 25.54893378 5.94614006 21.25195312 5.95117188 C12.83461941 5.96186719 4.41731408 5.97891476 -4 6 C-4 5.34 -4 4.68 -4 4 C1.445 3.505 1.445 3.505 7 3 C4.69 2.34 2.38 1.68 0 1 C0 0.67 0 0.34 0 0 Z " fill="#080808" transform="translate(267,197)"/>
<path d="M0 0 C1.216875 -0.020625 2.43375 -0.04125 3.6875 -0.0625 C4.71423828 -0.07990234 4.71423828 -0.07990234 5.76171875 -0.09765625 C8 0 8 0 10.03642273 0.49900818 C14.24967541 1.21125724 18.39003336 1.13041952 22.65551758 1.11352539 C24.10501801 1.11374443 24.10501801 1.11374443 25.58380127 1.1139679 C28.77073427 1.11327248 31.95760848 1.1054974 35.14453125 1.09765625 C37.35698922 1.09579075 39.5694476 1.09436747 41.78190613 1.09336853 C47.59993636 1.08955372 53.41794156 1.07973225 59.23596191 1.06866455 C65.17488262 1.05842818 71.11380738 1.05386614 77.05273438 1.04882812 C88.7018339 1.03810907 100.35091487 1.02104506 112 1 C112 1.33 112 1.66 112 2 C91.54 2.33 71.08 2.66 50 3 C53.96 3.33 57.92 3.66 62 4 C62 4.33 62 4.66 62 5 C40.22 5.33 18.44 5.66 -4 6 C-4 5.34 -4 4.68 -4 4 C1.445 3.505 1.445 3.505 7 3 C4.69 2.34 2.38 1.68 0 1 C0 0.67 0 0.34 0 0 Z " fill="#555555" transform="translate(267,197)"/>
<path d="M0 0 C0.33 0 0.66 0 1 0 C1 38.94 1 77.88 1 118 C0.67 118 0.34 118 0 118 C-0.7977448 111.75652828 -1.11896167 105.72954905 -1.02172852 99.44116211 C-1.01212097 98.53276581 -1.00251343 97.62436951 -0.99261475 96.68844604 C-0.95991685 93.71799232 -0.91947551 90.74769948 -0.87890625 87.77734375 C-0.8545765 85.70512948 -0.83073442 83.63290944 -0.80735779 81.5606842 C-0.74480078 76.13063937 -0.67565506 70.70069801 -0.60510254 65.27075195 C-0.53416132 59.72026241 -0.46949916 54.16970003 -0.40429688 48.61914062 C-0.27565087 37.74601368 -0.14003903 26.87298576 0 16 C-1.98 16.99 -1.98 16.99 -4 18 C-2.68 12.06 -1.36 6.12 0 0 Z " fill="#202020" transform="translate(300,8)"/>
<path d="M0 0 C0.66532745 -0.00546341 1.33065491 -0.01092682 2.0161438 -0.01655579 C4.18154244 -0.0281572 6.34631857 -0.02179329 8.51171875 -0.01171875 C9.24665558 -0.01089294 9.98159241 -0.01006714 10.73880005 -0.00921631 C45.98044741 0.08200991 45.98044741 0.08200991 51.19921875 5.30078125 C49.21921875 5.30078125 47.23921875 5.30078125 45.19921875 5.30078125 C45.85921875 6.29078125 46.51921875 7.28078125 47.19921875 8.30078125 C44.4491374 7.65529272 41.69915119 7.00940359 38.94921875 6.36328125 C38.17191406 6.18087891 37.39460938 5.99847656 36.59375 5.81054688 C35.46259766 5.54467773 35.46259766 5.54467773 34.30859375 5.2734375 C33.2717041 5.02992554 33.2717041 5.02992554 32.21386719 4.78149414 C30.8618756 4.45889702 29.51412486 4.11802357 28.17114258 3.75976562 C24.87343115 2.99219134 21.50776892 2.91461868 18.13671875 2.73828125 C17.35828613 2.69582275 16.57985352 2.65336426 15.77783203 2.60961914 C6.91953488 2.17085357 -1.93451718 2.2123152 -10.80078125 2.30078125 C-7.20414015 0.06005879 -4.1865551 0.02969975 0 0 Z " fill="#2D2D2D" transform="translate(184.80078125,16.69921875)"/>
<path d="M0 0 C1.60416667 0.29166667 3.20833333 0.58333333 4.8125 0.875 C5.83085937 1.05675781 6.84921875 1.23851562 7.8984375 1.42578125 C9.76305083 1.77099304 11.62425771 2.13686407 13.4765625 2.54296875 C22.86952147 4.52592676 32.43594733 4.64404113 42 5 C42 5.33 42 5.66 42 6 C37.38 6 32.76 6 28 6 C28 6.66 28 7.32 28 8 C28.66 8.33 29.32 8.66 30 9 C12.79784132 7.14350986 12.79784132 7.14350986 6.203125 5.5078125 C1.51820104 4.42795414 -3.25371012 3.75490905 -8 3 C-5.10765685 2.17361624 -3.11257569 2 0 2 C0 1.34 0 0.68 0 0 Z " fill="#2D2D2D" transform="translate(167,373)"/>
<path d="M0 0 C8.58 0 17.16 0 26 0 C26 0.33 26 0.66 26 1 C21.38 1 16.76 1 12 1 C12 1.66 12 2.32 12 3 C12.66 3.33 13.32 3.66 14 4 C11.03 3.67 8.06 3.34 5 3 C5 2.34 5 1.68 5 1 C3.35 1 1.7 1 0 1 C0 0.67 0 0.34 0 0 Z " fill="#222222" transform="translate(183,378)"/>
<path d="M0 0 C0.6328125 1.81640625 0.6328125 1.81640625 1 4 C-0.60212445 6.21470145 -2.12170903 8.05158616 -4 10 C-4.845625 10.9075 -5.69125 11.815 -6.5625 12.75 C-8.72737811 14.74834903 -10.37883433 15.78085317 -13 17 C-8.74093983 11.27445024 -4.39719064 5.62007798 0 0 Z " fill="#2D2D2D" transform="translate(413,504)"/>
<path d="M0 0 C1.794375 0.7115625 1.794375 0.7115625 3.625 1.4375 C9.93351712 3.57734901 16.39095639 3.7273652 23 4 C23 4.33 23 4.66 23 5 C15.41 5 7.82 5 0 5 C0.33 4.01 0.66 3.02 1 2 C0.67 1.34 0.34 0.68 0 0 Z " fill="#1F1F1F" transform="translate(262,546)"/>
<path d="M0 0 C1.76923828 0.31904297 1.76923828 0.31904297 3.57421875 0.64453125 C4.92966797 0.91330078 4.92966797 0.91330078 6.3125 1.1875 C2.96310119 3.21308881 0.44287449 3.40488987 -3.4375 3.3125 C-4.42234375 3.29445312 -5.4071875 3.27640625 -6.421875 3.2578125 C-7.54335938 3.22300781 -7.54335938 3.22300781 -8.6875 3.1875 C-9.0175 3.8475 -9.3475 4.5075 -9.6875 5.1875 C-9.6875 2.1875 -9.6875 2.1875 -8.60546875 0.44921875 C-5.63084572 -1.50761066 -3.4156182 -0.64254204 0 0 Z " fill="#0C0C0C" transform="translate(271.6875,197.8125)"/>
<path d="M0 0 C1.67110042 2.96178773 2.32682752 5.37071192 2.625 8.75 C2.69976562 9.54921875 2.77453125 10.3484375 2.8515625 11.171875 C2.92503906 12.07679688 2.92503906 12.07679688 3 13 C2.34 13 1.68 13 1 13 C-0.32 10.36 -1.64 7.72 -3 5 C-2.34 4.67 -1.68 4.34 -1 4 C-0.34786708 1.97536745 -0.34786708 1.97536745 0 0 Z " fill="#252525" transform="translate(414,254)"/>
<path d="M0 0 C0.97582031 0.00902344 1.95164063 0.01804687 2.95703125 0.02734375 C3.69308594 0.03894531 4.42914063 0.05054687 5.1875 0.0625 C5.1875 0.3925 5.1875 0.7225 5.1875 1.0625 C-3.2275 2.5475 -3.2275 2.5475 -11.8125 4.0625 C-11.4825 3.0725 -11.1525 2.0825 -10.8125 1.0625 C-7.13862505 0.20951624 -3.7677607 -0.04539471 0 0 Z " fill="#0C0C0C" transform="translate(187.8125,17.9375)"/>
<path d="M0 0 C0.33 0.99 0.66 1.98 1 3 C-2.66666667 6.66666667 -6.33333333 10.33333333 -10 14 C-10.33 13.01 -10.66 12.02 -11 11 C-10.37351563 10.45730469 -9.74703125 9.91460937 -9.1015625 9.35546875 C-8.28429687 8.64003906 -7.46703125 7.92460937 -6.625 7.1875 C-5.40683594 6.12595703 -5.40683594 6.12595703 -4.1640625 5.04296875 C-1.83816812 3.00018747 -1.83816812 3.00018747 0 0 Z " fill="#272727" transform="translate(262,351)"/>
<path d="M0 0 C-1.55500981 3.81684226 -4.03595495 6.19195732 -7 9 C-7.99 8.67 -8.98 8.34 -10 8 C-8.71451591 6.66070495 -7.42141845 5.32871357 -6.125 4 C-5.04605469 2.88625 -5.04605469 2.88625 -3.9453125 1.75 C-2 0 -2 0 0 0 Z " fill="#CCCCCC" transform="translate(157,33)"/>
<path d="M0 0 C1.62580966 0.11398665 3.25067157 0.24155659 4.875 0.375 C5.77992188 0.44460937 6.68484375 0.51421875 7.6171875 0.5859375 C10 1 10 1 12 3 C10.02 3 8.04 3 6 3 C6.99 4.485 6.99 4.485 8 6 C5.36 5.34 2.72 4.68 0 4 C0.99 3.34 1.98 2.68 3 2 C2.01 1.34 1.02 0.68 0 0 Z " fill="#575757" transform="translate(224,19)"/>
<path d="M0 0 C-0.66 0.66 -1.32 1.32 -2 2 C-2 2.33 -2 2.66 -2 3 C-4.97 2.67 -7.94 2.34 -11 2 C-10.67 1.34 -10.34 0.68 -10 0 C-6.35526801 -0.89093449 -3.57257469 -1.23666047 0 0 Z " fill="#2A2A2A" transform="translate(302,374)"/>
<path d="M0 0 C5.52677733 -0.19392201 9.75614911 0.2520497 15 2 C14.67 2.66 14.34 3.32 14 4 C11.69 4 9.38 4 7 4 C6.67 3.34 6.34 2.68 6 2 C2.97065509 1.34227572 2.97065509 1.34227572 0 1 C0 0.67 0 0.34 0 0 Z " fill="#3E3E3E" transform="translate(267,197)"/>
<path d="M0 0 C1.32 0.33 2.64 0.66 4 1 C3.67 1.99 3.34 2.98 3 4 C1.741875 4.04125 0.48375 4.0825 -0.8125 4.125 C-1.52019531 4.14820313 -2.22789062 4.17140625 -2.95703125 4.1953125 C-5 4 -5 4 -8 2 C-5.36 2 -2.72 2 0 2 C0 1.34 0 0.68 0 0 Z " fill="#4A4A4A" transform="translate(167,373)"/>
<path d="M0 0 C-1.49097658 3.7952131 -3.75700849 5.61042731 -7 8 C-4.18918919 0 -4.18918919 0 0 0 Z " fill="#C5C5C5" transform="translate(98,370)"/>
<path d="M0 0 C1.04005702 3.38018531 1.08004482 6.4780279 1 10 C0.34 10 -0.32 10 -1 10 C-1.33 10.66 -1.66 11.32 -2 12 C-1.85831863 10.56208484 -1.71148957 9.1246763 -1.5625 7.6875 C-1.48128906 6.88699219 -1.40007812 6.08648438 -1.31640625 5.26171875 C-1 3 -1 3 0 0 Z " fill="#B7B7B7" transform="translate(427,509)"/>
</svg>
